<svg xmlns="http://www.w3.org/2000/svg" width="800" height="600" viewBox="0 0 800 600">
  <defs>
    <linearGradient id="bg" x1="0%" y1="0%" x2="100%" y2="100%">
      <stop offset="0%" style="stop-color:#e8f0fe"/>
      <stop offset="50%" style="stop-color:#f0e6fa"/>
      <stop offset="100%" style="stop-color:#e6f7fd"/>
    </linearGradient>
    <linearGradient id="mt1" x1="0%" y1="0%" x2="0%" y2="100%">
      <stop offset="0%" style="stop-color:#c7d2fe;stop-opacity:0.6"/>
      <stop offset="100%" style="stop-color:#a5b4fc;stop-opacity:0.4"/>
    </linearGradient>
    <linearGradient id="mt2" x1="0%" y1="0%" x2="0%" y2="100%">
      <stop offset="0%" style="stop-color:#93a3fc;stop-opacity:0.5"/>
      <stop offset="100%" style="stop-color:#818cf8;stop-opacity:0.3"/>
    </linearGradient>
  </defs>
  <rect width="800" height="600" fill="url(#bg)"/>
  <polygon points="0,600 0,350 100,280 200,320 300,250 400,200 500,270 600,220 700,300 800,260 800,600" fill="url(#mt1)"/>
  <polygon points="0,600 0,400 150,350 250,380 400,320 550,360 650,330 800,370 800,600" fill="url(#mt2)"/>
  <circle cx="650" cy="120" r="50" fill="#fef3c7" opacity="0.6"/>
  <g transform="translate(400,280)" opacity="0.3">
    <path d="M-20,20 L0,-20 L20,20 Z" fill="none" stroke="#6366f1" stroke-width="2"/>
    <path d="M-12,20 L0,-4 L12,20 Z" fill="none" stroke="#6366f1" stroke-width="2"/>
  </g>
  <text x="400" y="520" text-anchor="middle" font-family="-apple-system,BlinkMacSystemFont,sans-serif" font-size="16" fill="#8e8ea0" opacity="0.6">暂无图片</text>
</svg>
